<svg width="278" height="224" viewBox="0 0 278 224" fill="none" xmlns="http://www.w3.org/2000/svg">
<g clip-path="url(#clip0_11_86)">
<path d="M1.64869 78.0307C1.69386 77.9404 1.73903 77.8614 1.78419 77.7824C1.81807 77.7259 1.85195 77.6695 1.88582 77.6017C1.9197 77.5453 1.95357 77.4776 1.98745 77.4211C3.22956 75.1972 4.9911 73.3909 7.01236 72.5103L7.58825 72.262L146.253 11.8197L146.829 11.5713C148.85 10.6907 150.747 10.9052 152.238 11.9326C152.283 11.9551 152.317 11.989 152.362 12.0116C152.407 12.0454 152.441 12.068 152.486 12.1019L160.515 18.0287L155.321 19.5753L162.209 112.621C162.389 115.025 161.701 117.565 160.447 119.789C160.413 119.857 160.379 119.914 160.345 119.981C160.312 120.038 160.278 120.094 160.244 120.151C159.002 122.375 157.24 124.181 155.219 125.061L16.938 185.334L17.4913 191.182L9.88051 185.549C9.88051 185.549 9.80147 185.492 9.7563 185.459C8.26576 184.431 7.26078 182.625 7.08011 180.22L0.0226523 84.951C-0.146727 82.6367 0.47433 80.1983 1.6374 78.0307H1.64869Z" fill="#1E1C17"/>
<path d="M23.2954 191.837L163.101 130.887C167.324 129.047 170.429 123.165 170.034 117.757L163.078 23.8426C162.683 18.4351 158.923 15.5451 154.7 17.3965L14.8942 78.3468C10.671 80.187 7.56575 86.0686 7.96096 91.4762L14.9168 185.391C15.312 190.798 19.0722 193.688 23.2954 191.837Z" fill="url(#paint0_linear_11_86)"/>
<path d="M15.47 78.0985L84.8025 47.8773L92.9778 158.286L23.8712 191.6C19.3319 193.576 15.3458 191.103 14.9732 186.08L7.91572 90.7988C7.54309 85.7638 10.9194 80.0854 15.47 78.1098V78.0985Z" fill="#C78750"/>
<path d="M154.135 17.6451L84.8025 47.8663L92.9214 157.575L162.536 131.124C167.075 129.148 170.463 123.459 170.09 118.435L163.033 23.1542C162.66 18.1193 158.674 15.6469 154.135 17.6338V17.6451Z" fill="#C78750"/>
<path d="M168.464 125.366C167.098 127.918 164.986 130.063 162.536 131.135L23.8712 191.589C21.4209 192.661 19.1286 192.424 17.48 191.194L87.9416 90.3585L168.464 125.366Z" fill="#DB9F6A"/>
<path d="M9.54176 83.8675C10.9081 81.3162 13.0197 79.1709 15.47 78.0985L154.135 17.6451C156.585 16.5726 158.878 16.8098 160.526 18.0403L90.0645 118.875L9.54176 83.8675Z" fill="#9A6434"/>
<path d="M39.3299 96.1499C39.375 96.0596 39.4089 95.958 39.4541 95.8676C39.488 95.7999 39.5105 95.7322 39.5444 95.6644C39.5783 95.5967 39.6122 95.529 39.646 95.4612C40.8091 92.9663 42.5481 90.8778 44.6484 89.7715L190.111 12.8018C192.211 11.6955 194.278 11.7632 195.96 12.7567C196.005 12.7792 196.051 12.8131 196.096 12.8357C196.141 12.8696 196.186 12.8921 196.231 12.9147L205.355 18.6383L199.89 20.7155L214.886 120.264C215.269 122.826 214.739 125.626 213.576 128.121C213.542 128.189 213.508 128.256 213.485 128.335C213.451 128.403 213.429 128.471 213.395 128.527C212.232 131.022 210.493 133.111 208.393 134.217L64.5222 210.34L65.5949 216.594L56.9566 211.153C56.9566 211.153 56.8662 211.096 56.8211 211.074C55.1273 210.092 53.8965 208.229 53.5125 205.655L38.1555 103.725C37.7829 101.253 38.2571 98.5658 39.3299 96.1499Z" fill="#1E1C17"/>
<path d="M71.896 216.831L217.347 139.862C221.751 137.536 224.608 130.954 223.739 125.174L208.607 24.6893C207.738 18.9093 203.469 16.1096 199.066 18.4351L53.6143 95.4161C49.2105 97.7417 46.3536 104.323 47.2231 110.103L62.3543 210.588C63.2238 216.368 67.4921 219.168 71.896 216.843V216.831Z" fill="url(#paint1_linear_11_86)"/>
<path d="M54.2013 95.1L126.334 56.9312L144.13 175.05L72.4943 216.515C67.7629 219.021 63.28 216.684 62.467 211.3L47.11 109.37C46.297 103.985 49.47 97.5949 54.2013 95.1Z" fill="#C78750"/>
<path d="M198.467 18.7625L126.334 56.9312L144.017 174.305L216.76 140.178C221.491 137.671 224.664 131.282 223.851 125.908L208.494 23.9781C207.681 18.5932 203.198 16.2563 198.467 18.7625Z" fill="url(#paint2_linear_11_86)"/>
<path d="M222.666 133.483C221.401 136.328 219.312 138.823 216.749 140.178L72.483 216.515C69.931 217.87 67.4468 217.791 65.5723 216.605L133.166 102.382L222.654 133.483H222.666Z" fill="#DB9F6A"/>
<path d="M48.2957 101.794C49.5604 98.9496 51.6494 96.4547 54.2126 95.1L198.467 18.7625C201.019 17.4078 203.503 17.4868 205.378 18.6722L137.784 132.896L48.2957 101.794Z" fill="#9A6434"/>
<path d="M79.213 95.7209C79.2581 95.6193 79.292 95.5177 79.3372 95.4161C79.3711 95.3483 79.3936 95.2693 79.4275 95.2016C79.4614 95.1226 79.4953 95.0548 79.5291 94.9758C80.6696 92.2664 82.4425 89.986 84.6331 88.7103L85.2541 88.3491L235.922 1.3546L236.543 0.993343C238.734 -0.271046 240.936 -0.282335 242.777 0.711113C242.833 0.733691 242.878 0.767559 242.923 0.790137C242.969 0.824005 243.025 0.846583 243.07 0.869161L253.018 6.60407L247.282 9.03124L267.178 114.495C267.687 117.215 267.235 120.218 266.094 122.917C266.061 122.996 266.027 123.063 266.004 123.142C265.97 123.21 265.948 123.289 265.914 123.357C264.773 126.066 263 128.358 260.81 129.622L110.548 216.391L111.937 223.006L102.52 217.554C102.52 217.554 102.418 217.497 102.373 217.475C100.532 216.493 99.1545 214.551 98.6351 211.83L78.2644 103.838C77.7676 101.219 78.1741 98.34 79.2243 95.7209H79.213Z" fill="#1E1C17"/>
<path d="M118.667 223.006L270.589 135.278C275.185 132.625 277.974 125.513 276.811 119.383L256.734 12.9373C255.582 6.80727 250.918 3.99626 246.322 6.64922L94.4008 94.3662C89.805 97.0191 87.0159 104.131 88.1789 110.261L108.256 216.707C109.408 222.837 114.071 225.648 118.667 222.995V223.006Z" fill="url(#paint3_linear_11_86)"/>
<path d="M95.0217 94.0049L170.361 50.4964L193.973 175.637L119.288 222.634C114.353 225.49 109.475 223.176 108.403 217.475L88.032 109.482C86.9592 103.781 90.0871 96.8498 95.0217 93.9936V94.0049Z" fill="#C78750"/>
<path d="M245.701 6.99945L170.361 50.508L193.826 174.858L269.979 135.64C274.913 132.784 278.041 125.852 276.969 120.151L256.598 12.1586C255.525 6.45757 250.647 4.14329 245.712 6.99945H245.701Z" fill="#C78750"/>
<path d="M275.997 128.268C274.767 131.35 272.632 134.093 269.968 135.628L119.288 222.634C116.623 224.169 113.981 224.192 111.937 223.006L179.451 98.6561L276.009 128.268H275.997Z" fill="#DB9F6A"/>
<path d="M88.9805 101.377C90.2113 98.2948 92.3455 95.5516 95.0104 94.0162L245.701 6.99945C248.366 5.46412 251.008 5.44128 253.052 6.62664L185.538 130.977L88.9805 101.365V101.377Z" fill="#9A6434"/>
</g>
<defs>
<linearGradient id="paint0_linear_11_86" x1="154.131" y1="107.056" x2="-80.6354" y2="244.256" gradientUnits="userSpaceOnUse">
<stop stop-color="#7BDAFF"/>
<stop offset="1" stop-color="#59BDEF"/>
</linearGradient>
<linearGradient id="paint1_linear_11_86" x1="108.366" y1="123.647" x2="-100.235" y2="278.242" gradientUnits="userSpaceOnUse">
<stop stop-color="#7BDAFF"/>
<stop offset="1" stop-color="#59BDEF"/>
</linearGradient>
<linearGradient id="paint2_linear_11_86" x1="262.559" y1="253.434" x2="-78.1529" y2="54.2658" gradientUnits="userSpaceOnUse">
<stop offset="0.77" stop-color="#59BDEF"/>
<stop offset="0.85" stop-color="#54B8EB"/>
<stop offset="0.93" stop-color="#48AAE1"/>
<stop offset="1" stop-color="#3A9BD5"/>
</linearGradient>
<linearGradient id="paint3_linear_11_86" x1="99.1809" y1="128.088" x2="-96.356" y2="289.449" gradientUnits="userSpaceOnUse">
<stop stop-color="#7BDAFF"/>
<stop offset="1" stop-color="#59BDEF"/>
</linearGradient>
<clipPath id="clip0_11_86">
<rect width="277.172" height="224" fill="white"/>
</clipPath>
</defs>
</svg>
