<svg width="244" height="72" viewBox="0 0 244 72" fill="none" xmlns="http://www.w3.org/2000/svg">
<path d="M14.4756 28.8C14.4756 15.2235 14.4756 8.43532 18.0493 4.21766C21.623 0 27.3748 0 38.8783 0H216.424C217.259 0 217.676 0 218.029 0.0241266C224.212 0.447062 229.146 6.26974 229.504 13.5668C229.524 13.983 229.524 14.4759 229.524 15.4615C229.524 16.078 229.524 16.3863 229.534 16.6733C229.7 21.5831 231.976 26.0542 235.571 28.5328C235.781 28.6777 236.012 28.8225 236.473 29.112L239.579 31.0619C242.002 32.5831 243.214 33.3437 243.651 34.3284C244.116 35.3752 244.116 36.6248 243.651 37.6716C243.214 38.6563 242.002 39.4169 239.579 40.9381L236.473 42.888C236.012 43.1775 235.781 43.3223 235.571 43.4672C231.976 45.9458 229.7 50.4169 229.534 55.3267C229.524 55.6137 229.524 55.9219 229.524 56.5385C229.524 57.5241 229.524 58.017 229.504 58.4332C229.146 65.7303 224.212 71.5529 218.029 71.9759C217.676 72 217.259 72 216.424 72H38.8783C27.3748 72 21.623 72 18.0493 67.7823C14.4756 63.5647 14.4756 56.7764 14.4756 43.2V28.8Z" fill="#DB9F6A"/>
<path d="M7.52717 42.888L4.42111 40.9381C1.99784 39.4169 0.786203 38.6563 0.348795 37.6716C-0.116265 36.6248 -0.116265 35.3752 0.348795 34.3284C0.786203 33.3437 1.99784 32.5831 4.42111 31.0619L7.52716 29.112C7.98814 28.8226 8.21908 28.6776 8.4291 28.5328C12.0241 26.0542 14.3 21.5831 14.4659 16.6733C14.4756 16.3863 14.4756 16.078 14.4756 15.4615C14.4756 14.4759 14.4756 13.983 14.4961 13.5668C14.8544 6.26974 19.7881 0.447062 25.971 0.0241266C26.3237 0 26.7413 0 27.5764 0H56.0365C67.54 0 73.2918 0 76.8655 4.21766C80.4392 8.43532 80.4392 15.2235 80.4392 28.8V43.2C80.4392 56.7765 80.4392 63.5647 76.8655 67.7823C73.2918 72 67.54 72 56.0365 72H27.5764C26.7413 72 26.3237 72 25.971 71.9759C19.7881 71.5529 14.8544 65.7303 14.4961 58.4332C14.4756 58.017 14.4756 57.5241 14.4756 56.5385C14.4756 55.922 14.4756 55.6137 14.4659 55.3267C14.3 50.4169 12.0241 45.9458 8.4291 43.4672C8.21902 43.3223 7.9884 43.1775 7.52717 42.888Z" fill="#DB9F6A"/>
</svg>
